<?xml version="1.0" encoding="utf-8"?>
<!-- Generator: Adobe Illustrator 14.0.0, SVG Export Plug-In . SVG Version: 6.00 Build 43363)  -->
<!DOCTYPE svg PUBLIC "-//W3C//DTD SVG 1.1//EN" "http://www.w3.org/Graphics/SVG/1.1/DTD/svg11.dtd">
<svg version="1.1" id="Layer_1" xmlns="http://www.w3.org/2000/svg" xmlns:xlink="http://www.w3.org/1999/xlink" x="0px" y="0px"
	 width="32px" height="32px" viewBox="0 0 32 32" enable-background="new 0 0 32 32" xml:space="preserve">
<path d="M16,0C7.164,0,0,7.164,0,16c0,7.07,4.584,13.066,10.942,15.182c0.8,0.146,1.092-0.348,1.092-0.77
	c0-0.381-0.015-1.643-0.022-2.979c-4.449,0.967-5.39-1.887-5.39-1.887c-0.729-1.848-1.776-2.34-1.776-2.34
	c-1.454-0.992,0.11-0.973,0.11-0.973c1.606,0.111,2.452,1.648,2.452,1.648c1.428,2.445,3.746,1.738,4.656,1.328
	c0.146-1.031,0.56-1.738,1.016-2.137c-3.552-0.404-7.288-1.777-7.288-7.908c0-1.748,0.624-3.174,1.646-4.294
	c-0.163-0.406-0.714-2.034,0.158-4.236c0,0,1.342-0.43,4.4,1.641C13.271,7.92,14.64,7.744,16,7.738
	c1.359,0.006,2.729,0.184,4.006,0.54c3.053-2.072,4.396-1.641,4.396-1.641c0.875,2.204,0.324,3.83,0.16,4.234
	c1.025,1.12,1.645,2.546,1.645,4.294c0,6.146-3.742,7.5-7.307,7.896c0.576,0.496,1.086,1.469,1.086,2.961
	c0,2.139-0.021,3.863-0.021,4.391c0,0.426,0.291,0.924,1.102,0.768C27.42,29.063,32,23.066,32,16C32,7.164,24.836,0,16,0z"/>
</svg>
