<?xml version="1.0" encoding="utf-8"?>
<!-- Generator: Adobe Illustrator 14.0.0, SVG Export Plug-In . SVG Version: 6.00 Build 43363)  -->
<!DOCTYPE svg PUBLIC "-//W3C//DTD SVG 1.1//EN" "http://www.w3.org/Graphics/SVG/1.1/DTD/svg11.dtd">
<svg version="1.1" id="Layer_1" xmlns="http://www.w3.org/2000/svg" xmlns:xlink="http://www.w3.org/1999/xlink" x="0px" y="0px"
	 width="32px" height="32px" viewBox="0 0 32 32" enable-background="new 0 0 32 32" xml:space="preserve">
<path d="M26.005,11.988c-0.011,0.997-0.021,1.994-0.025,2.995c-1.002,0.005-1.999,0.01-2.996,0.021c0,0.997,0,1.989,0,2.979
	c0.997,0.011,1.999,0.021,2.996,0.03c0.011,0.997,0.011,1.994,0.02,2.991c0.997,0,1.989,0,2.985,0
	c0.006-0.997,0.011-1.994,0.021-2.996c1.002-0.01,1.999-0.015,2.995-0.025c0-0.991,0-1.988,0-2.979
	c-0.996-0.01-1.998-0.01-2.995-0.021c-0.01-0.997-0.015-1.999-0.021-2.995C27.988,11.988,26.996,11.988,26.005,11.988L26.005,11.988
	z M0.028,15.975c-0.346,4.418,2.56,8.75,6.662,10.314c4.087,1.573,9.327,0.501,11.937-3.171c1.723-2.318,2.093-5.304,1.894-8.109
	c-3.347-0.026-6.688-0.021-10.029-0.01c-0.005,1.191,0,2.384,0.005,3.575c1.999,0.065,4.002,0.036,6.001,0.065
	c-0.882,4.434-6.913,5.871-10.103,2.977c-3.281-2.541-3.126-8.11,0.285-10.47c2.385-1.903,5.776-1.432,8.16,0.216
	c0.937-0.867,1.813-1.793,2.661-2.755c-1.984-1.583-4.418-2.71-7.008-2.59C5.087,5.837,0.118,10.57,0.028,15.975L0.028,15.975z"/>
</svg>
