<?xml version="1.0" encoding="utf-8"?>
<!-- Generator: Adobe Illustrator 14.0.0, SVG Export Plug-In . SVG Version: 6.00 Build 43363)  -->
<!DOCTYPE svg PUBLIC "-//W3C//DTD SVG 1.1//EN" "http://www.w3.org/Graphics/SVG/1.1/DTD/svg11.dtd">
<svg version="1.1" id="Layer_1" xmlns="http://www.w3.org/2000/svg" xmlns:xlink="http://www.w3.org/1999/xlink" x="0px" y="0px"
	 width="32px" height="32px" viewBox="0 0 32 32" enable-background="new 0 0 32 32" xml:space="preserve">
<path d="M7.81,29V9.652H1.379V29H7.81z M4.596,7.009c2.243,0,3.638-1.486,3.638-3.342C8.192,1.768,6.838,0.324,4.638,0.324
	C2.438,0.324,1,1.768,1,3.667c0,1.856,1.396,3.342,3.554,3.342H4.596L4.596,7.009z M11.37,29h6.43V18.195
	c0-0.579,0.042-1.156,0.213-1.569c0.465-1.155,1.521-2.352,3.3-2.352c2.325,0,3.257,1.774,3.257,4.375v10.35H31V17.906
	c0-5.943-3.173-8.708-7.404-8.708c-3.469,0-4.992,1.939-5.838,3.259H17.8V9.651h-6.43C11.454,11.467,11.37,28.999,11.37,29L11.37,29
	z"/>
</svg>
