<?xml version="1.0" encoding="utf-8"?>
<!-- Generator: Adobe Illustrator 14.0.0, SVG Export Plug-In . SVG Version: 6.00 Build 43363)  -->
<!DOCTYPE svg PUBLIC "-//W3C//DTD SVG 1.1//EN" "http://www.w3.org/Graphics/SVG/1.1/DTD/svg11.dtd">
<svg version="1.1" id="Layer_1" xmlns="http://www.w3.org/2000/svg" xmlns:xlink="http://www.w3.org/1999/xlink" x="0px" y="0px"
	 width="16px" height="16px" viewBox="0 0 16 16" enable-background="new 0 0 16 16" xml:space="preserve">
<path fill="#231F20" d="M12.18,1.002c-0.004-0.003-0.01-0.003-0.012,0l-1.404,1.404c-0.003,0.003-0.003,0.008,0,0.011l2.818,2.818
	c0.004,0.003,0.008,0.003,0.012,0l1.404-1.403c0.003-0.003,0.003-0.009,0-0.012L12.18,1.002z M10.057,3.124
	c-0.002-0.003-0.008-0.003-0.012,0l-7.156,7.155c-0.003,0.004-0.005,0.007-0.006,0.007c0,0-0.001,0.004-0.003,0.008L1,14.995
	C0.999,14.999,1,15.001,1.004,15l4.7-1.881c0.004-0.002,0.01-0.006,0.013-0.01l7.157-7.155c0.003-0.003,0.003-0.008,0-0.011
	L10.057,3.124z M4.004,11.996c-0.003,0.003-0.008,0.003-0.011,0L3.297,11.3c-0.003-0.003-0.003-0.009,0-0.012l6.748-6.749
	c0.004-0.003,0.01-0.003,0.012,0l0.696,0.696c0.003,0.003,0.003,0.009,0,0.012L4.004,11.996z"/>
</svg>
