<?xml version="1.0" encoding="utf-8"?>
<!-- Generator: Adobe Illustrator 14.0.0, SVG Export Plug-In . SVG Version: 6.00 Build 43363)  -->
<!DOCTYPE svg PUBLIC "-//W3C//DTD SVG 1.1//EN" "http://www.w3.org/Graphics/SVG/1.1/DTD/svg11.dtd">
<svg version="1.1" id="Layer_1" xmlns="http://www.w3.org/2000/svg" xmlns:xlink="http://www.w3.org/1999/xlink" x="0px" y="0px"
	 width="16px" height="16px" viewBox="0 0 16 16" enable-background="new 0 0 16 16" xml:space="preserve">
<path fill="#FFFFFF" d="M6.499,1.985C3.461,1.985,1,4.449,1,7.484c0,3.039,2.461,5.5,5.499,5.5c3.037,0,5.498-2.461,5.498-5.5
	C11.996,4.449,9.535,1.985,6.499,1.985z M6.499,11.885c-2.429,0-4.399-1.97-4.399-4.401c0-2.429,1.97-4.399,4.399-4.399
	c2.429,0,4.399,1.97,4.399,4.399C10.897,9.915,8.928,11.885,6.499,11.885z M13.828,13.746c0,1.179,0.109,1.067-1.069,1.067
	l-1.678-1.678c0-1.177-0.109-1.067,1.069-1.067L13.828,13.746z"/>
</svg>
