<?xml version="1.0" encoding="utf-8"?>
<!-- Generator: Adobe Illustrator 14.0.0, SVG Export Plug-In . SVG Version: 6.00 Build 43363)  -->
<!DOCTYPE svg PUBLIC "-//W3C//DTD SVG 1.1//EN" "http://www.w3.org/Graphics/SVG/1.1/DTD/svg11.dtd">
<svg version="1.1" id="Layer_1" xmlns="http://www.w3.org/2000/svg" xmlns:xlink="http://www.w3.org/1999/xlink" x="0px" y="0px"
	 width="24px" height="24px" viewBox="0 0 24 24" enable-background="new 0 0 24 24" xml:space="preserve">
<path d="M22,5h-2V3h4L22,5z M12,3H0v2h12V3z M24,19H12v2h10L24,19z M4,19H0v2h4V19z M24,11h-8v2h6L24,11z M8,11H0v2h8V11z M14,6h4V2
	h-4V6z M10,14h4v-4h-4V14z M6,22h4v-4H6V22z"/>
</svg>
