<?xml version="1.0" encoding="utf-8"?>
<!-- Generator: Adobe Illustrator 14.0.0, SVG Export Plug-In . SVG Version: 6.00 Build 43363)  -->
<!DOCTYPE svg PUBLIC "-//W3C//DTD SVG 1.1//EN" "http://www.w3.org/Graphics/SVG/1.1/DTD/svg11.dtd">
<svg version="1.1" xmlns="http://www.w3.org/2000/svg" xmlns:xlink="http://www.w3.org/1999/xlink" x="0px" y="0px" viewBox="0 0 512 512" xml:space="preserve">
<path d="M506.887,153.632c0,0-5.003-35.283-20.354-50.82c-19.469-20.393-41.293-20.494-51.301-21.687
c-71.647-5.179-179.121-5.179-179.121-5.179h-0.223c0,0-107.472,0-179.121,5.179c-10.008,1.194-31.824,1.295-51.301,21.687
c-15.351,15.537-20.346,50.82-20.346,50.82S0,195.065,0,236.497v38.843c0,41.433,5.12,82.865,5.12,82.865
s4.995,35.283,20.346,50.82c19.476,20.393,45.06,19.748,56.455,21.885C122.883,434.839,256,436.054,256,436.054
s107.585-0.162,179.232-5.341c10.008-1.194,31.831-1.295,51.301-21.687c15.351-15.537,20.354-50.82,20.354-50.82
S512,316.773,512,275.341v-38.843C512,195.065,506.887,153.632,506.887,153.632z M203.87,322.913v-144.36l137.342,72.18 L203.87,322.913z"/>
</svg>