<svg xmlns="http://www.w3.org/2000/svg" width="512" height="512" viewBox="0 0 512 512">
  <!--
  Font Awesome Pro 5.13.0 by @fontawesome - https://fontawesome.com
  License - https://fontawesome.com/license (Commercial License)
  -->
  <g transform="translate(80 80)">
    <path transform="scale(.65) translate(10 10)" fill="#fff" d="M256 8C119 8 8 119 8 256s111 248 248 248 248-111 248-248S393 8 256 8z"></path>
    <path transform="scale(.7)" fill="#AD2C26" d="M256 8C119.033 8 8 119.033 8 256s111.033 248 248 248 248-111.033 248-248S392.967 8 256 8zM103.265 408.735c-80.622-80.622-84.149-208.957-10.9-293.743l304.644 304.643c-84.804 73.264-213.138 69.706-293.744-10.9zm316.37-11.727L114.992 92.365c84.804-73.263 213.137-69.705 293.743 10.9 80.622 80.621 84.149 208.957 10.9 293.743z"></path>
  </g>
  <!-- End of FA5 license -->
</svg>
