<svg xmlns="http://www.w3.org/2000/svg" width="512" height="512" viewBox="0 0 512 512">
  <!--
  Font Awesome Pro 5.13.0 by @fontawesome - https://fontawesome.com
  License - https://fontawesome.com/license (Commercial License)
  -->
  <g transform="translate(120 80)">
    <path transform="scale(.7)" fill="#42AA5A" d="M360 480H24c-13.3 0-24-10.7-24-24v-24c0-13.3 10.7-24 24-24h336c13.3 0 24 10.7 24 24v24c0 13.3-10.7 24-24 24zM128 56v136H40.3c-17.8 0-26.7 21.5-14.1 34.1l152.2 152.2c7.5 7.5 19.8 7.5 27.3 0l152.2-152.2c12.6-12.6 3.7-34.1-14.1-34.1H256V56c0-13.3-10.7-24-24-24h-80c-13.3 0-24 10.7-24 24z"></path>
    <g transform="scale(.35) translate(460 600)">
      <path fill="#AD2C26" d="M256 8C119 8 8 119 8 256s111 248 248 248 248-111 248-248S393 8 256 8z"></path>
      <path transform="scale(.5) translate(290 260)" fill="#fff" d="M144 479H48c-26.5 0-48-21.5-48-48V79c0-26.5 21.5-48 48-48h96c26.5 0 48 21.5 48 48v352c0 26.5-21.5 48-48 48zm304-48V79c0-26.5-21.5-48-48-48h-96c-26.5 0-48 21.5-48 48v352c0 26.5 21.5 48 48 48h96c26.5 0 48-21.5 48-48z"></path>
    </g>
  </g>
  <!-- End of FA5 license -->
</svg>
