<svg xmlns="http://www.w3.org/2000/svg" width="512" height="512" viewBox="0 0 512 512">
    <style>
        text {
            fill: #fff;
            font-size: 156px;
            font-weight: 700;
            font-family: Consolas, Monaco, monospace;
        }
    </style>
    <g transform="translate(120 0)">
        <!--
        Font Awesome Pro 5.13.0 by @fontawesome - https://fontawesome.com
        License - https://fontawesome.com/license (Commercial License)
        -->
        <path transform="scale(.65) translate(18 10)" stroke="0" fill="#fff" d="M224 136V0H24C10.7 0 0 10.7 0 24v464c0 13.3 10.7 24 24 24h336c13.3 0 24-10.7 24-24V160H248c-13.2 0-24-10.8-24-24zm160-14.1v6.1H256V0h6.1c6.4 0 12.5 2.5 17 7l97.9 98c4.5 4.5 7 10.6 7 16.9z"></path>
        <path transform="scale(.7)" d="M369.9 97.9L286 14C277 5 264.8-.1 252.1-.1H48C21.5 0 0 21.5 0 48v416c0 26.5 21.5 48 48 48h288c26.5 0 48-21.5 48-48V131.9c0-12.7-5.1-25-14.1-34zm-22.6 22.7c2.1 2.1 3.5 4.6 4.2 7.4H256V32.5c2.8.7 5.3 2.1 7.4 4.2l83.9 83.9zM336 480H48c-8.8 0-16-7.2-16-16V48c0-8.8 7.2-16 16-16h176v104c0 13.3 10.7 24 24 24h104v304c0 8.8-7.2 16-16 16z"></path>
        <!-- End of FA5 license -->
    </g>

    <g transform="translate(11 301)">
        <rect fill="#A0352A" stroke="#000" stroke-width="20" width="490" height="200" rx="50"/>
        <text>
            <tspan x="105" y="152">FLA</tspan>
        </text>
    </g>
</svg>
