<svg xmlns="http://www.w3.org/2000/svg" viewBox="0 0 32 32">
  <path transform="translate(-.5 0)" d="m14.1 9.3-2-1.8H20l-1.3 1.1.6.7 2.3-2L22 7l-.4-.4-2.3-2-.6.7L20 6.4h-7.9l2-1.8-.7-.6-3 2.6-.4.4.4.4 3 2.6.7-.7zm7.1 14.1c0-.4.1-.8.1-1.3V12h-2.4v1.2c-.9-1-1.9-1.5-3.3-1.5-1.5 0-2.7.6-3.6 1.7-.8 1.1-1.3 2.3-1.3 3.8 0 1.6.5 2.8 1.4 3.9a4.59 4.59 0 0 0 6.8 0v1.4c0 2.1-.9 3.2-2.6 3.2-.9 0-1.7-.3-2.2-1-.2-.3-.4-.7-.5-1.2h-2.4c.1 1.4.7 2.4 1.6 3.2.9.7 2 1.1 3.4 1.1 1.6 0 2.9-.5 3.9-1.6.5-.6.8-1.2 1-2 0-.1.1-.4.1-.8zm-3.1-8.6c.5.6.8 1.4.8 2.4 0 .9-.2 1.7-.7 2.3-.5.7-1.3 1-2.2 1-.9 0-1.6-.3-2.1-1-.5-.6-.7-1.4-.7-2.3 0-1 .2-1.7.7-2.3.5-.7 1.2-1 2.1-1 .9-.1 1.6.2 2.1.9z"/>
</svg>
