<svg xmlns="http://www.w3.org/2000/svg" width="40" height="40" viewBox="0 0 512 512">
  <!--
  Font Awesome Pro 5.13.0 by @fontawesome - https://fontawesome.com
  License - https://fontawesome.com/license (Commercial License)
  -->
  <g transform="translate(120 80)">
    <path transform="scale(.67) translate(10 6)" stroke="0" fill="#fff" d="M224 136V0H24C10.7 0 0 10.7 0 24v464c0 13.3 10.7 24 24 24h336c13.3 0 24-10.7 24-24V160H248c-13.2 0-24-10.8-24-24zm160-14.1v6.1H256V0h6.1c6.4 0 12.5 2.5 17 7l97.9 98c4.5 4.5 7 10.6 7 16.9z"></path>
    <path transform="scale(.7)" d="M369.9 97.9L286 14C277 5 264.8-.1 252.1-.1H48C21.5 0 0 21.5 0 48v416c0 26.5 21.5 48 48 48h288c26.5 0 48-21.5 48-48V131.9c0-12.7-5.1-25-14.1-34zm-22.6 22.7c2.1 2.1 3.5 4.6 4.2 7.4H256V32.5c2.8.7 5.3 2.1 7.4 4.2l83.9 83.9zM336 480H48c-8.8 0-16-7.2-16-16V48c0-8.8 7.2-16 16-16h176v104c0 13.3 10.7 24 24 24h104v304c0 8.8-7.2 16-16 16z"></path>
    <path transform="scale(.32) translate(200 460)" fill="#436CF7" d="M432 416h-23.41L277.88 53.69A32 32 0 0 0 247.58 32h-47.16a32 32 0 0 0-30.3 21.69L39.41 416H16a16 16 0 0 0-16 16v32a16 16 0 0 0 16 16h128a16 16 0 0 0 16-16v-32a16 16 0 0 0-16-16h-19.58l23.3-64h152.56l23.3 64H304a16 16 0 0 0-16 16v32a16 16 0 0 0 16 16h128a16 16 0 0 0 16-16v-32a16 16 0 0 0-16-16zM176.85 272L224 142.51 271.15 272z"></path>
  </g>
  <!-- End of FA5 license -->
</svg>
