<svg width="32" height="32" viewBox="0 0 32 32" fill="none" xmlns="http://www.w3.org/2000/svg">
<path fill-rule="evenodd" clip-rule="evenodd" d="M14.6668 10.7178L13.1322 9.37499H19.1361L18.1729 10.2178L18.6668 10.7822L20.3811 9.2822L20.7036 8.99999L20.3811 8.71777L18.6668 7.21777L18.1729 7.7822L19.1361 8.62499H13.1322L14.6668 7.28221L14.1729 6.71777L11.8872 8.71777L11.5647 8.99999L11.8872 9.28221L14.1729 11.2822L14.6668 10.7178ZM20.0938 21.4682C20.1208 21.1875 20.1343 20.861 20.1343 20.4885V12.7881H18.3124V13.6788C17.6538 12.9392 16.8279 12.5695 15.8347 12.5695C14.7011 12.5695 13.7888 12.9959 13.0978 13.8488C12.4555 14.6531 12.1343 15.6302 12.1343 16.78C12.1343 17.9622 12.4798 18.9473 13.1707 19.7354C13.8563 20.5128 14.7362 20.9014 15.8104 20.9014C16.7551 20.9014 17.5891 20.5317 18.3124 19.7921V20.8933C18.3124 22.529 17.6457 23.3468 16.3124 23.3468C15.5891 23.3468 15.0385 23.1012 14.6606 22.6099C14.4986 22.3994 14.3826 22.0998 14.3124 21.7112H12.4825C12.5904 22.7422 12.9953 23.5492 13.697 24.1322C14.3772 24.699 15.2436 24.9824 16.2962 24.9824C17.5432 24.9824 18.5229 24.5722 19.2355 23.7516C19.6134 23.3252 19.8671 22.8151 19.9966 22.2213C20.0398 22.0054 20.0722 21.7543 20.0938 21.4682ZM17.7699 14.9095C18.1802 15.3684 18.3853 15.9811 18.3853 16.7476C18.3853 17.4655 18.1991 18.0539 17.8266 18.5128C17.4217 19.0202 16.8711 19.2739 16.1748 19.2739C15.4784 19.2739 14.9332 19.0229 14.5391 18.5209C14.1775 18.062 13.9966 17.4736 13.9966 16.7557C13.9966 16.0269 14.1775 15.4332 14.5391 14.9743C14.9386 14.4615 15.4838 14.2051 16.1748 14.2051C16.8225 14.2051 17.3542 14.4399 17.7699 14.9095Z" fill="black"/>
</svg>
