<svg xmlns="http://www.w3.org/2000/svg" width="512" height="512" viewBox="0 0 512 512">
  <!--
  Font Awesome Pro 5.13.0 by @fontawesome - https://fontawesome.com
  License - https://fontawesome.com/license (Commercial License)
  -->
  <g transform="translate(120 80)">
    <g transform="scale(.7)">
      <path transform="scale(.96) translate(8 8)" stroke="0" fill="#fff" d="M224 136V0H24C10.7 0 0 10.7 0 24v464c0 13.3 10.7 24 24 24h336c13.3 0 24-10.7 24-24V160H248c-13.2 0-24-10.8-24-24zm160-14.1v6.1H256V0h6.1c6.4 0 12.5 2.5 17 7l97.9 98c4.5 4.5 7 10.6 7 16.9z"></path>
      <path d="M369.9 97.9L286 14C277 5 264.8-.1 252.1-.1H48C21.5 0 0 21.5 0 48v416c0 26.5 21.5 48 48 48h288c26.5 0 48-21.5 48-48V131.9c0-12.7-5.1-25-14.1-34zm-22.6 22.7c2.1 2.1 3.5 4.6 4.2 7.4H256V32.5c2.8.7 5.3 2.1 7.4 4.2l83.9 83.9zM336 480H48c-8.8 0-16-7.2-16-16V48c0-8.8 7.2-16 16-16h176v104c0 13.3 10.7 24 24 24h104v304c0 8.8-7.2 16-16 16z"></path>

      <g transform="scale(.6) translate(340 500)">
        <path fill="#42AA5A" d="M256 8C119 8 8 119 8 256s111 248 248 248 248-111 248-248S393 8 256 8z"></path>
        <path transform="scale(.7) translate(140 110)" fill="#fff" d="M0 304v-96c0-13.3 10.7-24 24-24h200V80.2c0-21.4 25.8-32.1 41-17L441 239c9.4 9.4 9.4 24.6 0 34L265 448.7c-15.1 15.1-41 4.4-41-17V328H24c-13.3 0-24-10.7-24-24z"></path>
      </g>
    </g>
  </g>
  <!--#42AA5A-->
  <!-- End of FA5 license -->
</svg>
