<svg xmlns="http://www.w3.org/2000/svg" width="512" height="512" viewBox="0 0 512 512">
  <g transform="scale(.7) translate(160 120)">
    <rect x="15" y="150" width="360" height="50" fill="#fff"></rect>
    <!--
    Font Awesome Pro 5.13.0 by @fontawesome - https://fontawesome.com
    License - https://fontawesome.com/license (Commercial License)
    -->
    <path transform="scale(.54) translate(100 240)" fill="#fff" d="M256 8C119 8 8 119 8 256s111 248 248 248 248-111 248-248S393 8 256 8z"></path>
    <path d="M352,128H304V16a16,16,0,0,0-32,0V128H112V16a16,16,0,0,0-32,0V128H32A32,32,0,0,0,0,160v32a32,32,0,0,0,32,32v32c0,82.75,63.37,150.22,144,158.38V512h32V414.38c80.63-8.16,144-75.63,144-158.38V224a32,32,0,0,0,32-32V160A32,32,0,0,0,352,128ZM320,256a128,128,0,0,1-256,0V224H320Zm32-64H32V160H352Z"></path>
    <!-- End of FA5 license -->
  </g>
</svg>
